<mxfile host="app.diagrams.net" agent="Mozilla/5.0 (X11; Ubuntu; Linux x86_64; rv:134.0) Gecko/20100101 Firefox/134.0" version="25.0.3">
  <diagram name="Page-1" id="0Vyze75IJXNyw1NAYiIs">
    <mxGraphModel dx="2459" dy="1994" grid="1" gridSize="10" guides="1" tooltips="1" connect="1" arrows="1" fold="1" page="1" pageScale="1" pageWidth="850" pageHeight="1100" math="0" shadow="0">
      <root>
        <mxCell id="0" />
        <mxCell id="1" parent="0" />
        <mxCell id="piQVccZ1z7M02Xxa8-p4-25" style="edgeStyle=orthogonalEdgeStyle;rounded=0;orthogonalLoop=1;jettySize=auto;html=1;strokeWidth=3;startArrow=classic;startFill=1;endArrow=none;endFill=0;exitX=0.5;exitY=0;exitDx=0;exitDy=0;" parent="1" source="aIm4xBp03j_4wCwlNAj_-2" target="piQVccZ1z7M02Xxa8-p4-9" edge="1">
          <mxGeometry relative="1" as="geometry">
            <mxPoint x="305" y="65" as="sourcePoint" />
          </mxGeometry>
        </mxCell>
        <mxCell id="piQVccZ1z7M02Xxa8-p4-27" style="edgeStyle=orthogonalEdgeStyle;rounded=0;orthogonalLoop=1;jettySize=auto;html=1;strokeWidth=3;startArrow=classic;startFill=1;endArrow=none;endFill=0;exitX=0.5;exitY=0;exitDx=0;exitDy=0;" parent="1" source="aIm4xBp03j_4wCwlNAj_-6" target="piQVccZ1z7M02Xxa8-p4-12" edge="1">
          <mxGeometry relative="1" as="geometry">
            <mxPoint x="875.0999999999999" y="360" as="sourcePoint" />
          </mxGeometry>
        </mxCell>
        <mxCell id="piQVccZ1z7M02Xxa8-p4-28" style="edgeStyle=orthogonalEdgeStyle;rounded=0;orthogonalLoop=1;jettySize=auto;html=1;strokeWidth=3;startArrow=classic;startFill=1;endArrow=none;endFill=0;exitX=0.5;exitY=0;exitDx=0;exitDy=0;" parent="1" source="aIm4xBp03j_4wCwlNAj_-4" target="piQVccZ1z7M02Xxa8-p4-11" edge="1">
          <mxGeometry relative="1" as="geometry">
            <mxPoint x="535" y="210" as="sourcePoint" />
          </mxGeometry>
        </mxCell>
        <mxCell id="piQVccZ1z7M02Xxa8-p4-7" value="" style="group" parent="1" vertex="1" connectable="0">
          <mxGeometry x="680" y="-145" width="560" height="290" as="geometry" />
        </mxCell>
        <mxCell id="piQVccZ1z7M02Xxa8-p4-6" value="&lt;ul style=&quot;padding-left: 20px;&quot;&gt;&lt;li&gt;In Github&lt;/li&gt;&lt;li&gt;We provide:&lt;/li&gt;&lt;ul&gt;&lt;li&gt;instructions in README&lt;/li&gt;&lt;li&gt;add same instructions in `bam-masterdata` documentation&lt;br&gt;&lt;/li&gt;&lt;li&gt;pyproject.toml&lt;/li&gt;&lt;li&gt;src/ and tests/ folder structure&lt;/li&gt;&lt;li&gt;Depending on choice:&lt;br&gt;&lt;/li&gt;&lt;ul&gt;&lt;li&gt;a Python module per entity type&lt;/li&gt;&lt;li&gt;a pytest testing module per entity type&lt;/li&gt;&lt;li&gt;a masterdata.xlsx template&lt;/li&gt;&lt;li&gt;a masterdata.owl template&lt;br&gt;&lt;/li&gt;&lt;/ul&gt;&lt;/ul&gt;&lt;li&gt;Licensing?&lt;/li&gt;&lt;/ul&gt;" style="rounded=0;whiteSpace=wrap;html=1;strokeWidth=3;strokeColor=#002832;align=left;verticalAlign=top;fontSize=14;" parent="piQVccZ1z7M02Xxa8-p4-7" vertex="1">
          <mxGeometry x="260" width="300" height="290" as="geometry" />
        </mxCell>
        <mxCell id="piQVccZ1z7M02Xxa8-p4-4" value="masterdata-template" style="rounded=1;whiteSpace=wrap;html=1;fillColor=#325463;fontFamily=Klavika;fontColor=#FFFFFF;textShadow=0;fontSize=24;strokeColor=#002832;strokeWidth=3;" parent="piQVccZ1z7M02Xxa8-p4-7" vertex="1">
          <mxGeometry y="115" width="260" height="60" as="geometry" />
        </mxCell>
        <mxCell id="piQVccZ1z7M02Xxa8-p4-13" style="edgeStyle=orthogonalEdgeStyle;rounded=0;orthogonalLoop=1;jettySize=auto;html=1;strokeWidth=2;dashed=1;endArrow=open;endFill=0;" parent="1" source="piQVccZ1z7M02Xxa8-p4-9" target="piQVccZ1z7M02Xxa8-p4-4" edge="1">
          <mxGeometry relative="1" as="geometry" />
        </mxCell>
        <mxCell id="piQVccZ1z7M02Xxa8-p4-17" value="&lt;font style=&quot;font-size: 14px;&quot; face=&quot;Klavika&quot;&gt;&lt;i&gt;Use this template&lt;br&gt;&lt;/i&gt;&lt;/font&gt;" style="edgeLabel;html=1;align=center;verticalAlign=middle;resizable=0;points=[];" parent="piQVccZ1z7M02Xxa8-p4-13" vertex="1" connectable="0">
          <mxGeometry x="-0.1178" y="3" relative="1" as="geometry">
            <mxPoint as="offset" />
          </mxGeometry>
        </mxCell>
        <mxCell id="piQVccZ1z7M02Xxa8-p4-9" value="bam-masterdata-&amp;lt;usecase1&amp;gt;" style="rounded=1;whiteSpace=wrap;html=1;fillColor=#FF0025;fontFamily=Klavika;fontColor=#FFFFFF;textShadow=0;fontSize=20;strokeColor=#002832;strokeWidth=2;dashed=1;" parent="1" vertex="1">
          <mxGeometry x="210" y="-30" width="190" height="60" as="geometry" />
        </mxCell>
        <mxCell id="piQVccZ1z7M02Xxa8-p4-20" style="edgeStyle=orthogonalEdgeStyle;rounded=0;orthogonalLoop=1;jettySize=auto;html=1;endArrow=open;endFill=0;strokeWidth=2;dashed=1;" parent="1" source="piQVccZ1z7M02Xxa8-p4-12" target="piQVccZ1z7M02Xxa8-p4-4" edge="1">
          <mxGeometry relative="1" as="geometry" />
        </mxCell>
        <mxCell id="piQVccZ1z7M02Xxa8-p4-22" value="&lt;font style=&quot;font-size: 14px;&quot; face=&quot;Klavika&quot;&gt;&lt;i&gt;Use this template&lt;br&gt;&lt;/i&gt;&lt;/font&gt;" style="edgeLabel;html=1;align=center;verticalAlign=middle;resizable=0;points=[];" parent="piQVccZ1z7M02Xxa8-p4-20" vertex="1" connectable="0">
          <mxGeometry x="-0.0509" y="-4" relative="1" as="geometry">
            <mxPoint x="20" y="44" as="offset" />
          </mxGeometry>
        </mxCell>
        <mxCell id="piQVccZ1z7M02Xxa8-p4-12" value="bam-masterdata-&amp;lt;usecaseX&amp;gt;" style="rounded=1;whiteSpace=wrap;html=1;fillColor=#FF0025;fontFamily=Klavika;fontColor=#FFFFFF;textShadow=0;fontSize=20;strokeColor=#002832;strokeWidth=2;dashed=1;" parent="1" vertex="1">
          <mxGeometry x="760" y="160" width="190" height="60" as="geometry" />
        </mxCell>
        <mxCell id="piQVccZ1z7M02Xxa8-p4-11" value="bam-masterdata-&amp;lt;usecase2&amp;gt;" style="rounded=1;whiteSpace=wrap;html=1;fillColor=#FF0025;fontFamily=Klavika;fontColor=#FFFFFF;textShadow=0;fontSize=20;strokeColor=#002832;strokeWidth=2;dashed=1;" parent="1" vertex="1">
          <mxGeometry x="440" y="65" width="190" height="60" as="geometry" />
        </mxCell>
        <mxCell id="piQVccZ1z7M02Xxa8-p4-19" style="edgeStyle=orthogonalEdgeStyle;rounded=0;orthogonalLoop=1;jettySize=auto;html=1;strokeWidth=2;dashed=1;endArrow=open;endFill=0;" parent="1" source="piQVccZ1z7M02Xxa8-p4-11" target="piQVccZ1z7M02Xxa8-p4-4" edge="1">
          <mxGeometry relative="1" as="geometry" />
        </mxCell>
        <mxCell id="piQVccZ1z7M02Xxa8-p4-21" value="&lt;font style=&quot;font-size: 14px;&quot; face=&quot;Klavika&quot;&gt;&lt;i&gt;Use this template&lt;br&gt;&lt;/i&gt;&lt;/font&gt;" style="edgeLabel;html=1;align=center;verticalAlign=middle;resizable=0;points=[];" parent="piQVccZ1z7M02Xxa8-p4-19" vertex="1" connectable="0">
          <mxGeometry x="-0.3613" y="-4" relative="1" as="geometry">
            <mxPoint as="offset" />
          </mxGeometry>
        </mxCell>
        <mxCell id="piQVccZ1z7M02Xxa8-p4-31" value="&lt;div&gt;openBIS&lt;/div&gt;&lt;div&gt;instance&lt;br&gt;&lt;/div&gt;" style="rounded=1;whiteSpace=wrap;html=1;fillColor=#CCD8DF;fontFamily=Klavika;fontColor=#002832;textShadow=0;fontSize=40;strokeColor=#002832;strokeWidth=3;fontStyle=1" parent="1" vertex="1">
          <mxGeometry x="380" y="630" width="260" height="130" as="geometry" />
        </mxCell>
        <mxCell id="piQVccZ1z7M02Xxa8-p4-34" value="" style="edgeStyle=orthogonalEdgeStyle;rounded=0;orthogonalLoop=1;jettySize=auto;html=1;strokeWidth=3;entryX=0.5;entryY=0;entryDx=0;entryDy=0;" parent="1" source="piQVccZ1z7M02Xxa8-p4-1" target="aIm4xBp03j_4wCwlNAj_-12" edge="1">
          <mxGeometry relative="1" as="geometry">
            <mxPoint x="385" y="390" as="sourcePoint" />
            <mxPoint x="500" y="510" as="targetPoint" />
          </mxGeometry>
        </mxCell>
        <mxCell id="piQVccZ1z7M02Xxa8-p4-35" value="&lt;font face=&quot;Klavika&quot; style=&quot;font-size: 16px;&quot;&gt;push_to_openbis()&lt;/font&gt;" style="edgeLabel;html=1;align=center;verticalAlign=middle;resizable=0;points=[];" parent="piQVccZ1z7M02Xxa8-p4-34" vertex="1" connectable="0">
          <mxGeometry x="-0.0963" y="1" relative="1" as="geometry">
            <mxPoint x="-21" y="-3" as="offset" />
          </mxGeometry>
        </mxCell>
        <mxCell id="piQVccZ1z7M02Xxa8-p4-44" value="name" style="rounded=1;whiteSpace=wrap;html=1;fillColor=#325463;fontFamily=Klavika;fontColor=#FFFFFF;textShadow=0;fontSize=20;strokeColor=#002832;strokeWidth=3;" parent="1" vertex="1">
          <mxGeometry x="-280" y="-70" width="100" height="50" as="geometry" />
        </mxCell>
        <mxCell id="piQVccZ1z7M02Xxa8-p4-45" value="DataStore Github repository" style="text;html=1;align=center;verticalAlign=middle;whiteSpace=wrap;rounded=0;fontFamily=Klavika;fontSize=16;" parent="1" vertex="1">
          <mxGeometry x="-170" y="-60" width="140" height="30" as="geometry" />
        </mxCell>
        <mxCell id="piQVccZ1z7M02Xxa8-p4-47" value="App-specific Github repository" style="text;html=1;align=center;verticalAlign=middle;whiteSpace=wrap;rounded=0;fontFamily=Klavika;fontSize=16;" parent="1" vertex="1">
          <mxGeometry x="-170" y="10" width="140" height="30" as="geometry" />
        </mxCell>
        <mxCell id="piQVccZ1z7M02Xxa8-p4-48" value="name" style="rounded=1;whiteSpace=wrap;html=1;fillColor=#FF0025;fontFamily=Klavika;fontColor=#FFFFFF;textShadow=0;fontSize=20;strokeColor=#002832;strokeWidth=2;dashed=1;" parent="1" vertex="1">
          <mxGeometry x="-280" width="100" height="50" as="geometry" />
        </mxCell>
        <mxCell id="piQVccZ1z7M02Xxa8-p4-50" value="name" style="rounded=1;whiteSpace=wrap;html=1;fillColor=#CCD8DF;fontFamily=Klavika;fontColor=#002832;textShadow=0;fontSize=20;strokeColor=#002832;strokeWidth=3;fontStyle=1" parent="1" vertex="1">
          <mxGeometry x="-280" y="72.5" width="100" height="47.5" as="geometry" />
        </mxCell>
        <mxCell id="piQVccZ1z7M02Xxa8-p4-51" value="openBIS instance" style="text;html=1;align=center;verticalAlign=middle;whiteSpace=wrap;rounded=0;fontFamily=Klavika;fontSize=16;" parent="1" vertex="1">
          <mxGeometry x="-170" y="81.25" width="140" height="30" as="geometry" />
        </mxCell>
        <mxCell id="aIm4xBp03j_4wCwlNAj_-11" style="edgeStyle=orthogonalEdgeStyle;rounded=0;orthogonalLoop=1;jettySize=auto;html=1;entryX=0.5;entryY=0;entryDx=0;entryDy=0;strokeWidth=3;" edge="1" parent="1" source="aIm4xBp03j_4wCwlNAj_-2" target="piQVccZ1z7M02Xxa8-p4-1">
          <mxGeometry relative="1" as="geometry" />
        </mxCell>
        <mxCell id="aIm4xBp03j_4wCwlNAj_-2" value="checker" style="rhombus;whiteSpace=wrap;html=1;fontFamily=Klavika;fontSize=16;strokeWidth=3;strokeColor=#002832;" vertex="1" parent="1">
          <mxGeometry x="265" y="56.25" width="80" height="80" as="geometry" />
        </mxCell>
        <mxCell id="aIm4xBp03j_4wCwlNAj_-8" style="edgeStyle=orthogonalEdgeStyle;rounded=0;orthogonalLoop=1;jettySize=auto;html=1;exitX=0.5;exitY=1;exitDx=0;exitDy=0;strokeWidth=3;" edge="1" parent="1" source="aIm4xBp03j_4wCwlNAj_-6" target="piQVccZ1z7M02Xxa8-p4-1">
          <mxGeometry relative="1" as="geometry" />
        </mxCell>
        <mxCell id="aIm4xBp03j_4wCwlNAj_-6" value="checker" style="rhombus;whiteSpace=wrap;html=1;fontFamily=Klavika;fontSize=16;strokeWidth=3;strokeColor=#002832;" vertex="1" parent="1">
          <mxGeometry x="815" y="270" width="80" height="80" as="geometry" />
        </mxCell>
        <mxCell id="piQVccZ1z7M02Xxa8-p4-1" value="&lt;font&gt;bam&lt;/font&gt;-masterdata" style="rounded=1;whiteSpace=wrap;html=1;fillColor=#325463;fontFamily=Klavika;fontColor=#FFFFFF;textShadow=0;fontSize=30;strokeColor=#002832;strokeWidth=3;" parent="1" vertex="1">
          <mxGeometry x="230" y="357.5" width="250" height="60" as="geometry" />
        </mxCell>
        <mxCell id="piQVccZ1z7M02Xxa8-p4-29" value="&lt;ul style=&quot;padding-left: 20px;&quot;&gt;&lt;li&gt;In Github&lt;/li&gt;&lt;li&gt;Python:&lt;/li&gt;&lt;ul&gt;&lt;li&gt;bam_data_store/definitions/ defines the basic classes to be used by the entities datamodel&lt;/li&gt;&lt;li&gt;bam_data_store/datamodel/ contains the native BAM Data Store model (the common and abstract classes)&lt;/li&gt;&lt;/ul&gt;&lt;li&gt;Licensing?&lt;/li&gt;&lt;li&gt;Integrated with openBIS instances (with a method to `push_to_openbis()` serializing and pushing the datamodel to openBIS)&lt;br&gt;&lt;/li&gt;&lt;li&gt;CLI:&lt;/li&gt;&lt;ul&gt;&lt;li&gt;export to/from different formats: excel, json, rdf/xml&lt;/li&gt;&lt;li&gt;generate Python datamodel&lt;/li&gt;&lt;li&gt;push to openBIS&lt;/li&gt;&lt;/ul&gt;&lt;li&gt;Documentation&lt;/li&gt;&lt;ul&gt;&lt;li&gt;API, Diataxis-compliant&lt;/li&gt;&lt;/ul&gt;&lt;/ul&gt;" style="rounded=0;whiteSpace=wrap;html=1;strokeWidth=3;strokeColor=#002832;align=left;verticalAlign=top;fontSize=14;" parent="1" vertex="1">
          <mxGeometry x="-90" y="210" width="320" height="355" as="geometry" />
        </mxCell>
        <mxCell id="aIm4xBp03j_4wCwlNAj_-9" style="edgeStyle=orthogonalEdgeStyle;rounded=0;orthogonalLoop=1;jettySize=auto;html=1;entryX=0.5;entryY=0;entryDx=0;entryDy=0;strokeWidth=3;" edge="1" parent="1" source="aIm4xBp03j_4wCwlNAj_-4" target="piQVccZ1z7M02Xxa8-p4-1">
          <mxGeometry relative="1" as="geometry">
            <mxPoint x="500" y="350" as="targetPoint" />
          </mxGeometry>
        </mxCell>
        <mxCell id="aIm4xBp03j_4wCwlNAj_-4" value="checker" style="rhombus;whiteSpace=wrap;html=1;fontFamily=Klavika;fontSize=16;strokeWidth=3;strokeColor=#002832;" vertex="1" parent="1">
          <mxGeometry x="495" y="160" width="80" height="80" as="geometry" />
        </mxCell>
        <mxCell id="aIm4xBp03j_4wCwlNAj_-13" style="edgeStyle=orthogonalEdgeStyle;rounded=0;orthogonalLoop=1;jettySize=auto;html=1;strokeWidth=3;" edge="1" parent="1" source="aIm4xBp03j_4wCwlNAj_-12" target="piQVccZ1z7M02Xxa8-p4-31">
          <mxGeometry relative="1" as="geometry" />
        </mxCell>
        <mxCell id="aIm4xBp03j_4wCwlNAj_-12" value="checker" style="rhombus;whiteSpace=wrap;html=1;fontFamily=Klavika;fontSize=16;strokeWidth=3;strokeColor=#002832;" vertex="1" parent="1">
          <mxGeometry x="470" y="510" width="80" height="80" as="geometry" />
        </mxCell>
      </root>
    </mxGraphModel>
  </diagram>
</mxfile>
